<?xml version="1.0" encoding="UTF-8"?>
<!DOCTYPE svg PUBLIC "-//W3C//DTD SVG 1.1//EN" "http://www.w3.org/Graphics/SVG/1.1/DTD/svg11.dtd">
<!-- Creator: CorelDRAW X8 -->
<svg xmlns="http://www.w3.org/2000/svg" xml:space="preserve" width="3425px" height="1063px" version="1.1" style="shape-rendering:geometricPrecision; text-rendering:geometricPrecision; image-rendering:optimizeQuality; fill-rule:evenodd; clip-rule:evenodd"
viewBox="0 0 3425 1063"
 xmlns:xlink="http://www.w3.org/1999/xlink">
 <defs>
  <style type="text/css">
   <![CDATA[
    .fil2 {fill:#00837E}
    .fil3 {fill:#009992}
    .fil1 {fill:#00AF9F}
    .fil0 {fill:#687266;fill-rule:nonzero}
   ]]>
  </style>
 </defs>
 <g id="Camada_x0020_1">
  <metadata id="CorelCorpID_0Corel-Layer"/>
  <g id="_1805704979872">
   <polygon id="Shape" class="fil0" points="2329,315 2047,315 2047,368 2155,368 2155,670 2220,670 2220,368 2329,368 "/>
   <path id="Shape_0" class="fil0" d="M1928 474c-6,-2 -12,-6 -22,-9 -18,-9 -28,-10 -44,-19 -18,-11 -28,-21 -28,-38 0,-28 28,-40 68,-40 27,0 57,6 83,19l0 -56c-28,-11 -61,-16 -97,-16 -36,0 -64,9 -88,22 -22,15 -35,40 -35,68 0,20 9,39 16,51 5,6 11,12 19,18 17,13 27,17 47,27 14,6 49,18 59,24 20,10 42,25 41,45 0,25 -25,44 -69,44 -34,0 -67,-7 -102,-19l-12 50c39,16 77,25 121,25 72,0 121,-37 125,-95 6,-47 -25,-72 -82,-101l0 0z"/>
   <path id="Shape_1" class="fil0" d="M3276 345c0,0 -13,-30 -47,-30l-14 0 -11 0 -7 0 -32 0c0,11 0,15 9,19 14,5 8,21 7,30l-110 306 63 0 28 -85 132 0 28 85 67 0 -113 -325zm-94 187l41 -119 8 -23 9 21 39 118 -97 0 0 3 0 0z"/>
   <path id="Shape_2" class="fil0" d="M2532 345c0,0 -12,-30 -47,-30l-15 0 -10 0 -7 0 -33 0c0,11 0,15 11,19 13,5 7,21 5,30l-107 306 62 0 29 -85 132 0 28 85 67 0 -115 -325zm-96 187l41 -119 8 -23 9 21 39 118 -97 0 0 3 0 0z"/>
   <path id="Shape_3" class="fil0" d="M2973 315l0 249 -18 -23 -140 -202c0,0 -14,-22 -44,-22l-22 0 -11 0 -20 0c0,11 0,16 10,19 6,3 9,9 9,13l0 321 64 0 0 -240 0 -11 157 228c0,0 12,21 41,21l37 0 0 -353 -63 0 0 0z"/>
   <path id="Shape_4" class="fil0" d="M1680 315l0 53 -151 0 0 98 131 0 0 53 -131 0 0 98 164 0 0 53 -177 0c-34,0 -51,-25 -51,-53l0 -269c0,-8 -3,-12 -9,-14 -10,-4 -10,-6 -10,-19l20 0 214 0z"/>
   <g>
    <path id="Shape_5" class="fil0" d="M1311 345c-18,-21 -44,-30 -76,-30l-113 0 -2 0 -27 0c0,11 0,15 10,19 6,2 7,9 7,14l0 322 63 0 0 -128 65 0c30,0 57,-10 76,-33 17,-22 26,-49 26,-81 0,-34 -10,-60 -29,-83l0 0 0 0zm-92 145l-49 0 0 -122 49 0c41,0 58,22 58,60 0,38 -17,62 -58,62z"/>
   </g>
   <polygon id="Shape_6" class="fil0" points="1475,1000 1551,1000 1551,1025 1446,1025 1446,847 1475,847 "/>
   <polygon id="Shape_7" class="fil0" points="1748,1000 1834,1000 1834,1025 1715,1025 1715,868 1693,862 1693,847 1830,847 1830,875 1748,875 1748,922 1819,922 1819,950 1748,950 "/>
   <polygon id="Rectangle-path" class="fil0" points="1940,1025 1976,1025 1976,847 1940,847 "/>
   <polygon id="Shape_8" class="fil0" points="2148,1000 2222,1000 2222,1025 2117,1025 2117,847 2148,847 "/>
   <path id="Shape_9" class="fil0" d="M2417 1025c-26,0 -49,-9 -64,-27 -18,-17 -24,-41 -24,-69 0,-29 9,-52 24,-70 18,-18 38,-26 64,-26 27,0 50,8 65,26 17,18 23,41 23,70 0,28 -8,52 -23,69 -15,21 -37,27 -65,27zm0 -27c18,0 31,-6 43,-17 13,-11 16,-28 16,-50 0,-19 -4,-40 -16,-50 -10,-10 -24,-18 -43,-18 -17,0 -30,8 -41,18 -10,10 -14,28 -14,50 0,20 4,39 14,50 11,8 24,17 41,17zm-41 -184c-4,-12 -1,-22 5,-28 6,-8 17,-9 33,-3 12,4 18,7 21,7 4,0 9,-3 9,-9l0 -4 19 0c4,10 1,22 -5,28 -7,6 -17,9 -35,1 -10,-4 -28,-11 -25,5l-22 0c0,0 0,3 0,3z"/>
   <polygon id="Shape_10" class="fil0" points="2700,1000 2788,1000 2788,1025 2667,1025 2667,868 2647,862 2647,847 2784,847 2784,875 2700,875 2700,922 2771,922 2771,950 2700,950 "/>
   <path id="Shape_11" class="fil0" d="M3021 881c-16,-7 -32,-10 -48,-10 -21,0 -40,6 -40,17 0,9 8,13 16,19 8,5 15,6 24,11 4,1 10,4 12,4 32,15 51,26 51,53 -3,29 -28,48 -72,50 -23,0 -48,-5 -70,-12l7 -25c19,6 40,10 59,10 23,0 39,-9 39,-23 2,-10 -10,-16 -22,-22 -6,-3 -25,-10 -32,-13 -12,-3 -16,-8 -25,-12 -4,-2 -10,-6 -12,-9 -4,-6 -8,-15 -8,-25 0,-13 5,-26 17,-34 15,-8 31,-11 51,-13 21,0 44,5 60,11l-7 23 0 0z"/>
   <path id="Shape_12" class="fil1" d="M669 466c-78,71 -185,147 -316,216 1,16 5,32 7,47 483,-248 526,-569 526,-573 -1,5 -34,129 -185,277 -8,14 -19,23 -32,33l0 0z"/>
   <path id="Shape_13" class="fil2" d="M355 255c100,47 209,116 314,213 10,-8 24,-21 34,-37 -317,-271 -638,-281 -654,-281 9,0 116,16 265,85 17,7 31,14 41,20l0 0z"/>
   <path id="Shape_14" class="fil1" d="M355 686c-16,-117 -22,-264 0,-431 -14,-6 -29,-14 -43,-20 -72,499 140,781 148,790l0 -2c-3,-3 -56,-105 -96,-290 -4,-16 -4,-31 -9,-47l0 0z"/>
   <g>
    <path id="Shape_15" class="fil3" d="M776 352c87,-110 110,-195 110,-198 -6,-10 -23,-22 -40,-29 -118,-56 -249,-87 -385,-87 139,62 251,176 314,312l1 2zm0 0l0 0 0 0z"/>
   </g>
   <path id="Shape_16" class="fil1" d="M49 150c10,0 334,10 657,285 29,-29 52,-55 70,-83 -63,-138 -174,-252 -312,-314 -139,0 -264,24 -377,82 -10,6 -32,21 -38,30l0 0z"/>
   <g>
    <path id="Shape_17" class="fil3" d="M49 150c-6,7 -9,30 -10,47 -3,29 -3,60 -3,98 3,116 25,208 70,312 -3,-155 53,-290 147,-400 -111,-47 -189,-60 -198,-60l-6 3 0 0zm0 0l0 0 0 0z"/>
   </g>
   <path id="Shape_18" class="fil2" d="M460 1025c-3,-6 -217,-293 -144,-798 -25,-7 -46,-20 -69,-25 -95,109 -149,236 -149,390 71,178 194,336 362,433l0 0z"/>
   <path id="Shape_19" class="fil3" d="M379 805c38,139 81,215 81,218 123,-70 233,-170 306,-291 -88,46 -198,76 -311,76 -28,1 -47,-3 -76,-3l0 0z"/>
   <g>
    <path id="Shape_20" class="fil2" d="M886 156c0,5 -45,322 -523,571 1,29 10,53 16,78 25,3 57,7 85,7 108,0 212,-29 302,-78 164,-268 133,-517 126,-549l-6 -29 0 0zm0 0l0 0 0 0z"/>
   </g>
  </g>
 </g>
</svg>
