<?xml version="1.0" encoding="utf-8"?>
<!-- Generator: Adobe Illustrator 22.1.0, SVG Export Plug-In . SVG Version: 6.00 Build 0)  -->
<svg version="1.1" id="Layer_1" xmlns="http://www.w3.org/2000/svg" xmlns:xlink="http://www.w3.org/1999/xlink" x="0px" y="0px"
	 viewBox="0 0 150 40" style="enable-background:new 0 0 150 40;" xml:space="preserve">
<style type="text/css">
	.st0{fill:#009EDC;}
	.st1{fill:#2D2A29;}
</style>
<title>megaleiloes-logo</title>
<g id="Layer_2_1_">
	<g id="Camada_1">
		<path class="st0" d="M67.7,9.3l-2.1,0.2L64,9.7c-0.4,0-1,0-1.6,0.1h-2.1v0.8h2.9v19.3h-3.1v0.8h10.4v-0.8h-3L67.7,9.3z M83.7,24.4
			c-0.1,0.6-0.4,1.3-0.7,1.9c-0.4,0.7-0.8,1.3-1.3,1.9c-1,1.2-2.4,1.9-4,1.9c-1.1,0.1-2.2-0.5-2.8-1.5c-0.6-1.3-0.9-2.7-0.9-4.2
			v-2.9h10.2c0.2,0,0.3-0.1,0.3-0.2s0.1-0.1,0.1-0.2s0-0.2,0-0.3c0-1.8-0.7-3.6-2.1-4.8c-1.4-1.3-3.2-2-5.1-2
			c-2.2,0-4.3,0.9-5.8,2.5c-1.6,1.6-2.4,3.8-2.4,6.1c0,2.1,0.8,4.1,2.4,5.6c1.4,1.5,3.4,2.4,5.4,2.4c1.7,0,3.4-0.5,4.8-1.5
			c1.5-1.2,2.5-2.9,2.9-4.7L83.7,24.4z M74,20.1c-0.1-1.4,0.2-2.8,0.6-4.1c0.4-1,1.4-1.6,2.4-1.4c0.9-0.1,1.7,0.4,2.2,1.1
			c0.5,0.9,0.8,1.9,0.7,2.9v2.2h-6v-0.7H74z M88.3,12.7c0.5,0,0.9-0.2,1.3-0.5c0.7-0.6,0.7-1.7,0.1-2.4l-0.1-0.1
			C88.8,9,87.7,9,87,9.7c-0.3,0.3-0.5,0.8-0.5,1.3s0.2,0.9,0.5,1.2S87.8,12.7,88.3,12.7z M100.5,9.3c-0.8,0.1-1.5,0.2-2.1,0.2
			l-1.6,0.1c-0.4,0-1,0-1.6,0.1h-2.1v0.8H96v19.3h-5V14h-7.3v0.9h2.9v14.8h-3.1v0.8h20v-0.8h-3V9.3z M111.2,14c-2.3,0-4.4,0.9-6,2.5
			c-3.2,2.9-3.5,7.9-0.6,11.1c0.2,0.2,0.4,0.4,0.6,0.6c1.6,1.6,3.7,2.5,5.9,2.5c2.3,0,4.4-0.9,6-2.5c3.2-2.9,3.5-7.9,0.6-11.1
			c-0.2-0.2-0.4-0.4-0.6-0.6C115.6,14.9,113.4,14,111.2,14z M114.9,24.3c0.1,1.5-0.2,2.9-0.8,4.3c-0.6,1-1.8,1.5-2.9,1.4
			c-1.2,0.1-2.3-0.5-2.9-1.5c-0.6-1.3-0.9-2.8-0.8-4.3v-4c-0.1-1.5,0.2-2.9,0.8-4.3c1.2-1.6,3.5-1.9,5.1-0.7
			c0.3,0.2,0.5,0.4,0.7,0.7c0.6,1.3,0.9,2.8,0.8,4.3C114.9,20.2,114.9,24.3,114.9,24.3z M135.3,26.3c-0.4,0.6-0.8,1.3-1.3,1.8
			c-1,1.2-2.4,1.9-4,1.9c-1.1,0.1-2.2-0.5-2.8-1.5c-0.6-1.3-0.9-2.7-0.8-4.2v-3h10.1c0.2,0,0.3-0.1,0.3-0.2s0-0.2,0.1-0.3
			s0-0.2,0-0.3c0-1.8-0.8-3.5-2.1-4.7c-1.4-1.3-3.2-2-5.1-2c-2.2,0-4.3,0.9-5.8,2.5c-1.6,1.6-2.4,3.8-2.4,6.1c0,2.1,0.8,4.1,2.4,5.6
			c1.4,1.5,3.4,2.4,5.4,2.4c1.7,0,3.4-0.5,4.8-1.5c1.4-1.2,2.4-2.8,2.9-4.7h-1C135.8,25,135.6,25.6,135.3,26.3L135.3,26.3z
			 M126.4,20.2c-0.1-1.4,0.2-2.8,0.6-4.2c0.4-1,1.4-1.6,2.4-1.4c0.9-0.1,1.7,0.4,2.2,1.1c0.5,0.9,0.8,1.9,0.7,2.9l-0.1,2.1h-5.9
			L126.4,20.2z M148.9,22c-0.4-0.5-1-0.8-1.6-1c-0.8-0.3-1.7-0.5-2.6-0.7c-1.3-0.2-2.5-0.5-3.6-1.1c-0.6-0.4-0.9-1-0.9-1.6
			c0-0.8,0.3-1.6,0.9-2.2c0.7-0.6,1.6-1,2.5-0.9c1.1,0,2.1,0.3,2.9,1c0.7,0.5,1.2,1.3,1.3,2.1h1.1v-3.8h-0.7l-0.6,1.1
			c-0.5-0.3-1.1-0.5-1.7-0.7c-0.7-0.2-1.5-0.3-2.2-0.3c-1.4-0.1-2.7,0.4-3.8,1.3c-1,0.9-1.5,2.2-1.5,3.5c-0.1,1.4,0.5,2.7,1.7,3.5
			c0.5,0.4,1.1,0.6,1.8,0.9c0.6,0.2,1.3,0.4,2,0.5c1.2,0.1,2.3,0.5,3.4,1c0.7,0.5,1.1,1.3,1,2.1c0,0.9-0.4,1.8-1.1,2.3
			c-0.7,0.6-1.7,0.9-2.6,0.9c-1.3,0-2.5-0.4-3.4-1.2c-0.9-0.8-1.5-1.8-1.7-3h-1.2v4.5h0.7l1.2-0.9c0.6,0.4,1.3,0.8,2,1
			s1.5,0.3,2.2,0.3c1.5,0.1,3-0.4,4.2-1.3c1-1,1.5-2.4,1.4-3.9C150.1,24.2,149.7,23,148.9,22z"/>
		<path class="st1" d="M58.6,14.3c-0.8,0.2-1.6,0.4-2.3,0.9c-0.7,0.4-1.3,1-1.7,1.6c-0.5,0.8-0.8,1.7-0.8,2.6v0.3h4.7v-0.3
			c0-0.6,0.3-1.2,0.7-1.5c0.5-0.3,1.1-0.5,1.7-0.5c0.3,0,0.7,0,1,0.1c0.3,0,0.5,0.1,0.7,0.3c0.2,0.1,0.4,0.3,0.5,0.5
			c0.1,0.1,0.1,0.3,0.1,0.4v-4.5c-0.7-0.1-1.4-0.2-2.1-0.2C60.3,14,59.4,14.1,58.6,14.3z M114.8,9.7c-0.7-0.7-1.8-0.7-2.5,0
			c-0.3,0.3-0.5,0.8-0.5,1.3s0.2,0.9,0.5,1.2c0.7,0.7,1.8,0.7,2.5,0C115.4,11.5,115.5,10.4,114.8,9.7L114.8,9.7z M108.8,9.1
			c-0.5,0-0.9,0.2-1.3,0.5c-0.3,0.3-0.5,0.8-0.5,1.3s0.2,0.9,0.5,1.2s0.8,0.5,1.3,0.5s0.9-0.2,1.3-0.5c0.7-0.6,0.7-1.7,0.1-2.4
			l-0.1-0.1C109.7,9.3,109.3,9.2,108.8,9.1L108.8,9.1z M62,20.3c-0.5,0.1-1,0.2-1.6,0.3c-0.6,0.1-1.2,0.1-1.9,0.2s-1.3,0.2-1.9,0.4
			c-0.6,0.2-1.2,0.4-1.7,0.8s-1,0.9-1.3,1.4c-0.1,0.2-0.2,0.4-0.2,0.6V14H49v1.8c-0.4-0.5-0.9-0.9-1.5-1.2c-0.9-0.4-1.8-0.6-2.8-0.6
			s-2,0.2-2.9,0.6c-0.8,0.4-1.6,1-2.1,1.7c-0.6,0.7-1,1.6-1.3,2.5v0.1c-0.3-0.8-0.7-1.5-1.1-2.1c-0.6-0.9-1.5-1.6-2.5-2.1
			c-1.1-0.5-2.3-0.8-3.5-0.8c-1.1,0-2.2,0.2-3.3,0.6c-1.9,0.8-3.4,2.4-4.2,4.4c-0.1,0.2-0.1,0.4-0.2,0.6c0-0.8-0.1-1.7-0.4-2.5
			c-0.5-1.4-1.7-2.4-3.1-2.8c-0.7-0.2-1.5-0.3-2.3-0.3c-1,0-2,0.3-2.9,0.8c-0.6,0.4-1.2,0.9-1.6,1.4c-0.4-0.7-1-1.3-1.7-1.7
			C10.8,14.2,9.8,14,8.9,14c-1,0-1.9,0.2-2.8,0.7C5.5,15,5,15.5,4.5,16v-1.6H0v16.1h4.7v-9.4c0-0.6,0.1-1.1,0.3-1.7
			c0.2-0.4,0.4-0.7,0.7-0.9c0.2-0.2,0.5-0.4,0.9-0.4C6.8,18,7.1,18,7.3,18c0.5,0,0.9,0.1,1.3,0.3c0.3,0.2,0.5,0.4,0.6,0.8
			c0.1,0.3,0.2,0.7,0.2,1.1s0,0.9,0,1.3v9.2h4.8v-9.1c0-0.4,0-0.9,0.1-1.3s0.2-0.8,0.4-1.1c0.2-0.3,0.4-0.6,0.7-0.8
			c0.4-0.2,0.8-0.3,1.3-0.3c0.4,0,0.9,0.1,1.2,0.3c0.3,0.2,0.5,0.4,0.7,0.7c0.2,0.3,0.3,0.7,0.3,1c0,0.4,0,0.9,0,1.4v9.2h4.7v-5.4
			c0.1,0.2,0.1,0.4,0.2,0.5c0.3,1,0.9,1.9,1.6,2.6s1.6,1.3,2.5,1.7c1.1,0.4,2.2,0.6,3.3,0.6c1.6,0,3.2-0.4,4.5-1.2
			c1.3-0.9,2.3-2.3,2.7-3.8c0.2,0.7,0.6,1.3,1,1.9c0.6,0.7,1.3,1.3,2.1,1.7c0.9,0.4,2,0.6,3,0.6c0.9,0,1.9-0.2,2.7-0.6
			c0.6-0.3,1.2-0.7,1.6-1.2v1.2c0,0.8-0.2,1.7-0.7,2.4c-0.6,0.7-1.4,1-2.3,0.9c-0.6,0-1.3-0.1-1.8-0.4c-0.5-0.3-0.9-0.9-1-1.5h-4.7
			c0.1,1.7,1,3.2,2.4,4.1c0.7,0.4,1.4,0.7,2.2,0.9s1.5,0.3,2.3,0.3l0,0c1.5,0.1,2.9-0.2,4.3-0.7c1-0.4,1.8-1,2.5-1.8
			c0.6-0.7,0.9-1.4,1.1-2.3c0.2-0.7,0.2-1.4,0.3-2.1v-1.5c0,0.1,0.1,0.3,0.2,0.4c0.3,0.6,0.7,1.1,1.2,1.5s1.1,0.7,1.8,0.9
			c0.6,0.2,1.2,0.3,1.8,0.3h4.8v-5.9v0.3c0,0.4-0.2,0.7-0.4,1c-0.2,0.4-0.5,0.7-0.9,0.9c-0.5,0.3-1.1,0.4-1.8,0.4
			c-0.3,0-0.6,0-0.9-0.1c-0.3,0-0.5-0.1-0.7-0.3c-0.2-0.1-0.3-0.3-0.5-0.5c0.1-0.5,0-0.7,0-1s0-0.6,0.2-0.8c0.1-0.2,0.3-0.4,0.5-0.5
			c0.2-0.2,0.4-0.3,0.7-0.4s0.6-0.2,0.9-0.2l1-0.1c0.3,0,0.7-0.1,1-0.1c0.3-0.1,0.6-0.1,0.9-0.2l0.2-0.1v-3.4c0,0.1-0.1,0.3-0.2,0.4
			C62.8,20.1,62.4,20.3,62,20.3z M28.1,19.7c0.1-0.3,0.3-0.7,0.5-0.9c0.3-0.3,0.6-0.6,1-0.8c0.5-0.2,1-0.3,1.5-0.3
			c0.7-0.1,1.5,0.2,2,0.7s0.8,1.2,0.9,1.9h-6C28,20.2,28.1,19.9,28.1,19.7L28.1,19.7z M34.4,24.9l-0.1,0.2c-0.2,0.5-0.5,0.9-1,1.2
			c-0.6,0.4-1.3,0.6-2,0.6c-0.9,0.1-1.7-0.2-2.4-0.8c-0.6-0.7-0.9-1.5-0.9-2.4h10.1c0.1,0.4,0.1,0.8,0.3,1.2l0,0L34.4,24.9z
			 M48.7,23.6c-0.1,0.4-0.3,0.9-0.6,1.2c-0.3,0.4-0.6,0.7-1,0.9c-0.4,0.2-0.9,0.3-1.4,0.3s-1-0.1-1.5-0.4c-0.4-0.2-0.7-0.6-0.9-1
			c-0.3-0.4-0.4-0.9-0.5-1.4s-0.2-1-0.2-1.6c0-0.5,0.1-1,0.2-1.5c0.1-0.5,0.3-0.9,0.6-1.3s0.6-0.7,1-0.9c0.4-0.2,0.9-0.3,1.4-0.3
			s1.1,0.1,1.5,0.4c0.4,0.2,0.8,0.5,1,0.9c0.3,0.4,0.4,0.9,0.5,1.4c0.1,0.6,0.2,1.1,0.2,1.7C49,22.6,48.9,23.1,48.7,23.6L48.7,23.6z
			"/>
		<path class="st1" d="M63.4,9.7h-0.8h-2.3v0.8h3.1V9.7z"/>
	</g>
</g>
</svg>
